<svg version="1.2" xmlns="http://www.w3.org/2000/svg" viewBox="0 0 1400 1400" width="1400" height="1400">
	<title>3</title>
	<style>
		.s0 { fill: #ec4d37 } 
	</style>
	<g id="g204">
		<path id="path2" class="s0" d="m904.6 635.2c61 41.8 61.7 144.5 0.6 186.6-37.2 26.9-93.2 15.1-118.8-22.4-41.5-53.1-25.1-144.4 38.4-172.5 25.7-11 56.8-7.7 79.8 8.3z"/>
		<path id="path4" class="s0" d="m595.3 639.6c63.9 47.8 51.5 165.6-25.4 193.2-46.8 15.8-99.1-16-113.5-61.8-23-58.2 8.7-138.6 74.3-149.7 22.8-3.2 46.7 3.8 64.6 18.3z"/>
		<path id="path6" fill-rule="evenodd" class="s0" d="m622 317.6c30.1 17.9 103.1 12.6 144 2.6 20-13.1 25.1-45.9 54.7-46.9l51.4 3.9c40.7 7 76.7 19.8 112.9 37.5 33.6 16.4 58.6 35.3 90 55 30.4 27 71.9 38 96.6 71.3 19.8 36.7 62.7 55.9 66.7 101.8 2.6 55.7-13.8 110.6-25.7 164.5 4.8 43.4-13.4 88.6-62.9 89-3.1 34.9 14.9 65 29 91-21-16.3-11.7 0.3-9 16-25.1-22.1-30.6-66.9-30.9-102.3-27.4-8-72.4-24.7-82.9-64.5-15-38.4-42.2-66.6-60.5-103.2-31-29.9-35.2-71.2-18.9-109.3-1.1-37.8 40.5-68 14.3-102.6-35-39-86.4-55.6-135.8-70.3-30.1-6.3-34.2 41.7-52.3 60.2q-82.6-8.4-165.8-5.3c-47.1-2.4-35.3 5.6-47.1-2.4-22.5-16.2-23.4-67.6-57-55.5-52.5 12-100.1 44.4-147.8 66.3-61.6 92.5-116.1 193.8-128.8 306-14.4 58.8-12.8 119.4-7.6 179.3 12.7 51.4 68.4 77.7 113.5 96.9 37.2 13.7 94.5 56.8 115.3 3.5 3.2-24.6-70.3-48.8-31.7-89.8 56.8 20.2 115.3 37.1 175.2 45.2 107.5 14.3 220.9 4.9 318.8-45.2 15.3 17.6 9.4 38.4-2 54.2-7.3 10.2-24.1 22-29.1 31.3-7.4 15.1 13.4 40.8 37.1 33.8 48.5-5.7 99.7-22.4 145.7-39 39.6-18.3 80.6-40.1 109.3-72.3 0 40.1-24.3 74.8-50.4 103.1-47.5 46.2-111.3 71.9-172.1 95.7-19.2 2.6-41.5 17.8-54.5 9.2-48.8-6.6-65.4-59.9-90-95-68.5 9.5-137.3 13.1-206.3 7-33.5-1.3-75.6-24.6-85.7 19-16 34.8-45.4 77.5-88 72-25.7-8.1-61.5-22.1-90.1-33.9-52.4-23.6-107.4-50-150.9-86.1-31.7-14-50.8-44.5-51-79 0.6-45.5-1.9-94.7 2-137 9.5-144.4 59.6-284.9 135.5-407.5 25.3-52.5 85.9-68.7 137.3-84.8 35.6-12.5 93.6-19.6 125.2-30.7 33.8-1.5 36.2 21.4 60.3 47.3zm558.5 271.6c-9.6 42.9 35.1 15.1 21.2-11.9-8 0.9-18.2 3.1-21.2 11.9zm-147.3 23.3c15.9 41.9 39.7-24.1-1.5-19.2-4.2 5.8-1.5 13.6 1.5 19.2z"/>
	</g>
</svg>
